<svg xmlns="http://www.w3.org/2000/svg" xmlns:xlink="http://www.w3.org/1999/xlink" width="500" zoomAndPan="magnify" viewBox="0 0 375 374.999991" height="500" preserveAspectRatio="xMidYMid meet" version="1.0"><defs><g/><clipPath id="7cf83f42b0"><path d="M 224 144 L 263.070312 144 L 263.070312 183 L 224 183 Z M 224 144 " clip-rule="nonzero"/></clipPath><clipPath id="ce5fe06f5c"><path d="M 111.570312 157 L 168 157 L 168 200 L 111.570312 200 Z M 111.570312 157 " clip-rule="nonzero"/></clipPath><clipPath id="84e70ececf"><path d="M 192 112.066406 L 227 112.066406 L 227 147 L 192 147 Z M 192 112.066406 " clip-rule="nonzero"/></clipPath></defs><path fill="#081ff7" d="M 239.160156 190.277344 L 172.679688 123.671875 C 171.808594 122.800781 170.890625 122.046875 169.953125 121.417969 C 168.929688 120.734375 167.863281 120.167969 166.777344 119.71875 L 166.765625 119.71875 C 165.671875 119.261719 164.519531 118.921875 163.339844 118.679688 C 162.171875 118.445312 160.992188 118.328125 159.808594 118.328125 C 158.628906 118.328125 157.445312 118.445312 156.273438 118.679688 C 155.089844 118.914062 153.945312 119.261719 152.847656 119.71875 L 152.832031 119.71875 C 151.75 120.167969 150.695312 120.726562 149.695312 121.394531 C 148.726562 122.046875 147.796875 122.808594 146.921875 123.679688 L 146.429688 124.171875 C 145.789062 124.871094 145.203125 125.621094 144.679688 126.40625 C 144 127.429688 143.429688 128.5 142.984375 129.585938 C 142.539062 130.667969 142.1875 131.832031 141.945312 133.03125 C 141.710938 134.199219 141.597656 135.382812 141.597656 136.566406 C 141.597656 137.742188 141.710938 138.925781 141.945312 140.09375 C 142.1875 141.292969 142.53125 142.457031 142.976562 143.535156 C 143.417969 144.605469 143.976562 145.660156 144.652344 146.675781 C 145.300781 147.65625 146.050781 148.582031 146.894531 149.429688 L 147.523438 150.058594 L 174.535156 177.117188 L 189.347656 191.953125 C 205.40625 208.042969 224.027344 204.824219 240.84375 191.953125 Z M 239.160156 190.277344 " fill-opacity="1" fill-rule="evenodd"/><g clip-path="url(#7cf83f42b0)"><path fill="#081ff7" d="M 250.160156 145.652344 C 247.601562 144.589844 244.867188 144.058594 242.144531 144.058594 C 239.390625 144.058594 236.652344 144.589844 234.109375 145.644531 C 231.667969 146.652344 229.367188 148.171875 227.34375 150.195312 L 227.328125 150.195312 L 224.980469 152.550781 L 224.285156 153.246094 L 224.988281 153.953125 L 253.191406 182.214844 L 253.894531 182.921875 L 254.59375 182.222656 L 256.941406 179.871094 L 256.941406 179.855469 C 257.941406 178.855469 258.804688 177.800781 259.53125 176.707031 C 260.3125 175.53125 260.964844 174.308594 261.480469 173.054688 C 261.992188 171.804688 262.394531 170.476562 262.667969 169.09375 C 262.933594 167.75 263.070312 166.382812 263.070312 165.019531 C 263.070312 163.660156 262.933594 162.285156 262.667969 160.941406 C 262.394531 159.5625 261.992188 158.234375 261.480469 156.980469 C 260.964844 155.730469 260.3125 154.507812 259.53125 153.332031 C 258.804688 152.238281 257.941406 151.183594 256.941406 150.183594 C 255.941406 149.179688 254.886719 148.316406 253.796875 147.585938 C 252.628906 146.820312 251.402344 146.167969 250.160156 145.652344 Z M 250.160156 145.652344 " fill-opacity="1" fill-rule="evenodd"/></g><g clip-path="url(#ce5fe06f5c)"><path fill="#081ff7" d="M 135.824219 159.160156 C 133.695312 158.28125 131.402344 157.832031 129.089844 157.832031 C 126.796875 157.832031 124.507812 158.273438 122.371094 159.160156 L 122.355469 159.160156 C 120.320312 160.003906 118.394531 161.277344 116.699219 162.976562 L 116.683594 162.976562 C 115.878906 163.78125 115.160156 164.667969 114.539062 165.609375 C 113.878906 166.597656 113.335938 167.628906 112.902344 168.667969 L 112.902344 168.683594 C 112.464844 169.738281 112.128906 170.847656 111.910156 171.984375 C 111.683594 173.109375 111.570312 174.253906 111.570312 175.394531 C 111.570312 176.53125 111.683594 177.675781 111.910156 178.800781 C 112.144531 179.960938 112.480469 181.078125 112.902344 182.117188 C 113.335938 183.164062 113.878906 184.1875 114.539062 185.175781 C 115.144531 186.085938 115.863281 186.964844 116.707031 187.808594 L 121.457031 192.566406 C 122.476562 193.59375 123.605469 194.472656 124.789062 195.207031 C 126.160156 196.066406 127.605469 196.765625 129.0625 197.3125 C 130.667969 197.917969 132.3125 198.359375 133.894531 198.652344 C 143.800781 200.507812 155.46875 199.808594 167.664062 189.183594 L 165.984375 187.496094 L 163.226562 184.734375 L 141.484375 162.984375 C 139.789062 161.285156 137.855469 160.007812 135.824219 159.160156 Z M 135.824219 159.160156 " fill-opacity="1" fill-rule="evenodd"/></g><g clip-path="url(#84e70ececf)"><path fill="#081ff7" d="M 215.3125 113.457031 C 213.117188 112.546875 210.761719 112.089844 208.390625 112.089844 C 206.019531 112.089844 203.65625 112.546875 201.464844 113.457031 C 199.359375 114.328125 197.375 115.636719 195.640625 117.382812 L 192.617188 120.410156 L 192.066406 120.964844 L 192.609375 121.5 L 192.625 121.5 L 217.042969 145.960938 L 217.585938 146.507812 L 218.132812 145.960938 L 221.15625 142.933594 L 221.171875 142.933594 C 221.988281 142.113281 222.730469 141.195312 223.390625 140.210938 C 224.070312 139.183594 224.632812 138.136719 225.0625 137.082031 C 225.511719 136.003906 225.851562 134.859375 226.085938 133.667969 C 226.3125 132.507812 226.433594 131.328125 226.433594 130.152344 C 226.433594 128.976562 226.320312 127.800781 226.085938 126.640625 C 225.851562 125.457031 225.511719 124.308594 225.0625 123.230469 C 224.617188 122.148438 224.054688 121.09375 223.398438 120.105469 L 223.382812 120.089844 C 222.753906 119.148438 222.011719 118.238281 221.148438 117.375 C 219.40625 115.636719 217.414062 114.328125 215.3125 113.457031 Z M 215.3125 113.457031 " fill-opacity="1" fill-rule="evenodd"/></g><g fill="#000000" fill-opacity="1"><g transform="translate(95.100332, 254.842337)"><g><path d="M 13.316406 0.394531 C 19.234375 0.394531 22.917969 -2.828125 23.671875 -7.859375 L 19.433594 -7.859375 C 18.90625 -4.667969 16.539062 -3.058594 13.25 -3.058594 C 8.121094 -3.058594 5.457031 -7.003906 5.457031 -12.558594 C 5.457031 -18.085938 8.121094 -21.996094 13.25 -21.996094 C 16.539062 -21.996094 18.90625 -20.417969 19.433594 -17.6875 L 23.671875 -17.6875 C 22.949219 -22.292969 19.234375 -25.480469 13.316406 -25.480469 C 5.195312 -25.480469 1.480469 -19.433594 1.480469 -12.558594 C 1.480469 -5.6875 5.195312 0.394531 13.316406 0.394531 Z M 13.316406 0.394531 "/></g></g></g><g fill="#000000" fill-opacity="1"><g transform="translate(119.983689, 254.842337)"><g><path d="M 5.820312 0 L 5.820312 -8.582031 C 5.820312 -11.671875 6.214844 -13.316406 7.167969 -14.367188 C 7.859375 -15.15625 8.84375 -15.617188 10.226562 -15.617188 C 11.375 -15.617188 12.230469 -15.320312 12.789062 -14.699219 C 13.480469 -13.941406 13.777344 -12.722656 13.777344 -10.816406 L 13.777344 0 L 17.394531 0 L 17.394531 -10.785156 C 17.394531 -12.296875 17.394531 -14.074219 16.570312 -15.714844 C 15.714844 -17.394531 14.136719 -18.675781 11.015625 -18.675781 C 9.042969 -18.675781 7.464844 -17.953125 5.820312 -15.75 L 5.820312 -25.085938 L 2.203125 -25.085938 L 2.203125 0 Z M 5.820312 0 "/></g></g></g><g fill="#000000" fill-opacity="1"><g transform="translate(139.410457, 254.842337)"><g><path d="M 7.398438 0.363281 C 9.042969 0.363281 10.488281 0.0664062 11.671875 -0.691406 C 12.394531 -1.152344 13.054688 -1.808594 13.578125 -2.695312 L 13.578125 0 L 17.195312 0 L 17.195312 -10.160156 C 17.195312 -12.035156 17.195312 -14.925781 15.191406 -16.800781 C 13.84375 -18.050781 11.835938 -18.675781 9.734375 -18.675781 C 6.148438 -18.675781 2.761719 -16.671875 2.136719 -12.625 L 5.722656 -12.625 C 6.117188 -14.53125 7.726562 -15.714844 9.699219 -15.714844 C 10.917969 -15.714844 11.902344 -15.320312 12.59375 -14.632812 C 13.25 -13.941406 13.578125 -12.988281 13.613281 -11.707031 L 7.628906 -10.554688 C 5.917969 -10.226562 4.472656 -9.734375 3.386719 -8.945312 C 2.136719 -8.023438 1.414062 -6.707031 1.414062 -4.964844 C 1.414062 -1.609375 3.847656 0.363281 7.398438 0.363281 Z M 8.121094 -2.628906 C 6.28125 -2.628906 5.03125 -3.519531 5.03125 -5.0625 C 5.03125 -5.753906 5.292969 -6.3125 5.722656 -6.742188 C 6.3125 -7.300781 7.167969 -7.660156 8.484375 -7.925781 L 13.644531 -8.945312 C 13.644531 -6.214844 13.019531 -4.371094 10.75 -3.222656 C 9.960938 -2.828125 9.109375 -2.628906 8.121094 -2.628906 Z M 8.121094 -2.628906 "/></g></g></g><g fill="#000000" fill-opacity="1"><g transform="translate(158.60713, 254.842337)"><g><path d="M 11.046875 0 L 11.046875 -3.058594 L 9.109375 -3.058594 C 7.398438 -3.058594 7.265625 -3.976562 7.265625 -5.261719 L 7.265625 -15.289062 L 11.082031 -15.289062 L 11.082031 -18.3125 L 7.265625 -18.3125 L 7.265625 -25.085938 L 3.648438 -25.085938 L 3.648438 -18.3125 L 0.820312 -18.3125 L 0.820312 -15.289062 L 3.648438 -15.289062 L 3.648438 -4.308594 C 3.648438 -1.050781 5.226562 0 7.957031 0 Z M 11.046875 0 "/></g></g></g><g fill="#000000" fill-opacity="1"><g transform="translate(170.835141, 254.842337)"><g><path d="M 11.046875 0 L 11.046875 -3.058594 L 9.109375 -3.058594 C 7.398438 -3.058594 7.265625 -3.976562 7.265625 -5.261719 L 7.265625 -15.289062 L 11.082031 -15.289062 L 11.082031 -18.3125 L 7.265625 -18.3125 L 7.265625 -25.085938 L 3.648438 -25.085938 L 3.648438 -18.3125 L 0.820312 -18.3125 L 0.820312 -15.289062 L 3.648438 -15.289062 L 3.648438 -4.308594 C 3.648438 -1.050781 5.226562 0 7.957031 0 Z M 11.046875 0 "/></g></g></g><g fill="#000000" fill-opacity="1"><g transform="translate(183.063152, 254.842337)"><g><path d="M 10.523438 0.363281 C 15.257812 0.363281 18.050781 -2.53125 19.167969 -6.015625 L 15.386719 -6.015625 C 14.699219 -4.273438 13.019531 -2.792969 10.585938 -2.792969 C 8.351562 -2.792969 6.511719 -4.207031 5.621094 -6.445312 C 5.359375 -7.003906 5.164062 -7.757812 5.097656 -8.417969 L 19.464844 -8.417969 L 19.464844 -9.402344 C 19.464844 -15.652344 15.09375 -18.675781 10.421875 -18.675781 C 4.472656 -18.675781 1.414062 -13.941406 1.414062 -9.074219 C 1.414062 -3.683594 5.097656 0.363281 10.523438 0.363281 Z M 5.328125 -11.34375 C 5.425781 -11.835938 5.589844 -12.496094 5.953125 -13.085938 C 6.871094 -14.761719 8.515625 -15.683594 10.554688 -15.683594 C 12.496094 -15.683594 14.269531 -14.796875 15.15625 -13.085938 C 15.488281 -12.527344 15.652344 -11.871094 15.714844 -11.34375 Z M 5.328125 -11.34375 "/></g></g></g><g fill="#000000" fill-opacity="1"><g transform="translate(203.936236, 254.842337)"><g><path d="M 5.785156 0 L 5.785156 -9.042969 C 5.785156 -11.410156 6.3125 -12.921875 7.332031 -13.910156 C 8.121094 -14.699219 9.238281 -15.125 10.75 -15.125 L 11.738281 -15.125 L 11.738281 -18.675781 L 11.375 -18.675781 C 9.074219 -18.675781 7.332031 -17.953125 5.785156 -15.980469 L 5.785156 -18.3125 L 2.171875 -18.3125 L 2.171875 0 Z M 5.785156 0 "/></g></g></g><g fill="#000000" fill-opacity="1"><g transform="translate(216.319078, 254.842337)"><g><path d="M 2.859375 0 L 5.390625 -6.773438 L 17.230469 -6.773438 L 19.761719 0 L 22.09375 0 L 12.625 -25.085938 L 9.996094 -25.085938 L 0.527344 0 Z M 11.3125 -22.753906 L 16.503906 -8.8125 L 6.117188 -8.8125 Z M 11.3125 -22.753906 "/></g></g></g><g fill="#000000" fill-opacity="1"><g transform="translate(238.93433, 254.842337)"><g><path d="M 10.949219 -18.378906 C 8.285156 -18.378906 6.082031 -17 4.503906 -14.699219 L 4.503906 -18.050781 L 2.367188 -18.050781 L 2.367188 7.035156 L 4.503906 7.035156 L 4.503906 -3.355469 C 6.117188 -0.988281 8.320312 0.328125 10.949219 0.328125 C 15.652344 0.328125 18.839844 -3.550781 18.839844 -9.042969 C 18.839844 -14.5 15.652344 -18.378906 10.949219 -18.378906 Z M 10.75 -16.472656 C 14.433594 -16.472656 16.703125 -13.25 16.703125 -9.042969 C 16.703125 -4.800781 14.433594 -1.578125 10.75 -1.578125 C 7.101562 -1.578125 4.4375 -4.769531 4.4375 -9.042969 C 4.4375 -13.285156 7.101562 -16.472656 10.75 -16.472656 Z M 10.75 -16.472656 "/></g></g></g><g fill="#000000" fill-opacity="1"><g transform="translate(259.412969, 254.842337)"><g><path d="M 10.949219 -18.378906 C 8.285156 -18.378906 6.082031 -17 4.503906 -14.699219 L 4.503906 -18.050781 L 2.367188 -18.050781 L 2.367188 7.035156 L 4.503906 7.035156 L 4.503906 -3.355469 C 6.117188 -0.988281 8.320312 0.328125 10.949219 0.328125 C 15.652344 0.328125 18.839844 -3.550781 18.839844 -9.042969 C 18.839844 -14.5 15.652344 -18.378906 10.949219 -18.378906 Z M 10.75 -16.472656 C 14.433594 -16.472656 16.703125 -13.25 16.703125 -9.042969 C 16.703125 -4.800781 14.433594 -1.578125 10.75 -1.578125 C 7.101562 -1.578125 4.4375 -4.769531 4.4375 -9.042969 C 4.4375 -13.285156 7.101562 -16.472656 10.75 -16.472656 Z M 10.75 -16.472656 "/></g></g></g></svg>